<mxfile host="app.diagrams.net" modified="2022-07-13T12:07:14.314Z" agent="5.0 (Windows NT 10.0; Win64; x64) AppleWebKit/537.36 (KHTML, like Gecko) Chrome/103.0.0.0 Safari/537.36" etag="D1Mrd_Yg7yW88v43kSoK" version="20.0.3" type="github">
  <diagram id="lZpXRReiDrGfDAi7SAbU" name="Page-1">
    <mxGraphModel dx="2370" dy="2492" grid="1" gridSize="10" guides="1" tooltips="1" connect="1" arrows="1" fold="1" page="1" pageScale="1" pageWidth="827" pageHeight="1169" math="0" shadow="0">
      <root>
        <mxCell id="0" />
        <mxCell id="1" parent="0" />
        <mxCell id="EFqGxAVJnfdpWvWCHFHZ-1" value="&lt;b&gt;&lt;font style=&quot;font-size: 21px;&quot;&gt;IR&lt;/font&gt;&lt;/b&gt;" style="rounded=1;whiteSpace=wrap;html=1;strokeWidth=3;" vertex="1" parent="1">
          <mxGeometry x="170" y="100" width="220" height="60" as="geometry" />
        </mxCell>
        <mxCell id="EFqGxAVJnfdpWvWCHFHZ-2" value="&lt;b&gt;&lt;font style=&quot;font-size: 21px;&quot;&gt;H&lt;/font&gt;&lt;/b&gt;" style="rounded=1;whiteSpace=wrap;html=1;strokeWidth=3;" vertex="1" parent="1">
          <mxGeometry x="170" y="180" width="220" height="60" as="geometry" />
        </mxCell>
        <mxCell id="EFqGxAVJnfdpWvWCHFHZ-3" value="" style="rounded=1;whiteSpace=wrap;html=1;" vertex="1" parent="1">
          <mxGeometry x="170" y="260" width="220" height="60" as="geometry" />
        </mxCell>
        <mxCell id="EFqGxAVJnfdpWvWCHFHZ-4" value="&lt;b&gt;&lt;font style=&quot;font-size: 21px;&quot;&gt;PC&lt;/font&gt;&lt;/b&gt;" style="rounded=1;whiteSpace=wrap;html=1;strokeWidth=3;" vertex="1" parent="1">
          <mxGeometry x="170" y="20" width="220" height="60" as="geometry" />
        </mxCell>
        <mxCell id="EFqGxAVJnfdpWvWCHFHZ-5" value="" style="rounded=1;whiteSpace=wrap;html=1;" vertex="1" parent="1">
          <mxGeometry x="170" y="920" width="220" height="60" as="geometry" />
        </mxCell>
        <mxCell id="EFqGxAVJnfdpWvWCHFHZ-6" value="&lt;b&gt;&lt;font style=&quot;font-size: 21px;&quot;&gt;T&lt;/font&gt;&lt;/b&gt;" style="rounded=1;whiteSpace=wrap;html=1;strokeWidth=3;" vertex="1" parent="1">
          <mxGeometry x="170" y="820" width="220" height="60" as="geometry" />
        </mxCell>
        <mxCell id="EFqGxAVJnfdpWvWCHFHZ-7" value="" style="rounded=1;whiteSpace=wrap;html=1;" vertex="1" parent="1">
          <mxGeometry x="170" y="740" width="220" height="60" as="geometry" />
        </mxCell>
        <mxCell id="EFqGxAVJnfdpWvWCHFHZ-8" value="" style="rounded=1;whiteSpace=wrap;html=1;" vertex="1" parent="1">
          <mxGeometry x="170" y="660" width="220" height="60" as="geometry" />
        </mxCell>
        <mxCell id="EFqGxAVJnfdpWvWCHFHZ-9" value="" style="rounded=1;whiteSpace=wrap;html=1;" vertex="1" parent="1">
          <mxGeometry x="170" y="580" width="220" height="60" as="geometry" />
        </mxCell>
        <mxCell id="EFqGxAVJnfdpWvWCHFHZ-10" value="" style="rounded=1;whiteSpace=wrap;html=1;" vertex="1" parent="1">
          <mxGeometry x="170" y="500" width="220" height="60" as="geometry" />
        </mxCell>
        <mxCell id="EFqGxAVJnfdpWvWCHFHZ-11" value="" style="rounded=1;whiteSpace=wrap;html=1;" vertex="1" parent="1">
          <mxGeometry x="170" y="420" width="220" height="60" as="geometry" />
        </mxCell>
        <mxCell id="EFqGxAVJnfdpWvWCHFHZ-12" value="&lt;b&gt;&lt;font style=&quot;font-size: 21px;&quot;&gt;J&lt;/font&gt;&lt;/b&gt;" style="rounded=1;whiteSpace=wrap;html=1;strokeWidth=3;" vertex="1" parent="1">
          <mxGeometry x="170" y="340" width="220" height="60" as="geometry" />
        </mxCell>
        <mxCell id="EFqGxAVJnfdpWvWCHFHZ-14" value="&lt;b&gt;&lt;font style=&quot;font-size: 21px;&quot;&gt;MAR&lt;/font&gt;&lt;/b&gt;" style="rounded=1;whiteSpace=wrap;html=1;strokeWidth=3;" vertex="1" parent="1">
          <mxGeometry x="170" y="-140" width="220" height="60" as="geometry" />
        </mxCell>
        <mxCell id="EFqGxAVJnfdpWvWCHFHZ-16" value="" style="rounded=0;whiteSpace=wrap;html=1;strokeWidth=3;" vertex="1" parent="1">
          <mxGeometry x="690" y="-210" width="30" height="1290" as="geometry" />
        </mxCell>
        <mxCell id="EFqGxAVJnfdpWvWCHFHZ-17" value="" style="rounded=0;whiteSpace=wrap;html=1;strokeWidth=3;" vertex="1" parent="1">
          <mxGeometry x="70" y="-210" width="30" height="1290" as="geometry" />
        </mxCell>
        <mxCell id="EFqGxAVJnfdpWvWCHFHZ-18" value="" style="shape=trapezoid;perimeter=trapezoidPerimeter;whiteSpace=wrap;html=1;fixedSize=1;rotation=-180;strokeWidth=3;" vertex="1" parent="1">
          <mxGeometry x="400" y="890" width="190" height="40" as="geometry" />
        </mxCell>
        <mxCell id="EFqGxAVJnfdpWvWCHFHZ-20" value="" style="endArrow=classic;html=1;rounded=0;entryX=0;entryY=0.822;entryDx=0;entryDy=0;entryPerimeter=0;strokeWidth=3;" edge="1" parent="1" target="EFqGxAVJnfdpWvWCHFHZ-16">
          <mxGeometry width="50" height="50" relative="1" as="geometry">
            <mxPoint x="390" y="849.5500000000002" as="sourcePoint" />
            <mxPoint x="630.8100000000002" y="850.3599999999997" as="targetPoint" />
          </mxGeometry>
        </mxCell>
        <mxCell id="EFqGxAVJnfdpWvWCHFHZ-21" value="" style="endArrow=classic;html=1;rounded=0;entryX=0;entryY=0.76;entryDx=0;entryDy=0;entryPerimeter=0;strokeWidth=3;" edge="1" parent="1" target="EFqGxAVJnfdpWvWCHFHZ-16">
          <mxGeometry width="50" height="50" relative="1" as="geometry">
            <mxPoint x="389.19" y="769.5500000000002" as="sourcePoint" />
            <mxPoint x="630.0000000000002" y="770.3599999999997" as="targetPoint" />
          </mxGeometry>
        </mxCell>
        <mxCell id="EFqGxAVJnfdpWvWCHFHZ-22" value="" style="endArrow=classic;html=1;rounded=0;entryX=-0.019;entryY=0.698;entryDx=0;entryDy=0;entryPerimeter=0;strokeWidth=3;" edge="1" parent="1" target="EFqGxAVJnfdpWvWCHFHZ-16">
          <mxGeometry width="50" height="50" relative="1" as="geometry">
            <mxPoint x="390" y="689.5500000000002" as="sourcePoint" />
            <mxPoint x="630.8100000000002" y="690.3599999999997" as="targetPoint" />
          </mxGeometry>
        </mxCell>
        <mxCell id="EFqGxAVJnfdpWvWCHFHZ-23" value="" style="endArrow=classic;html=1;rounded=0;entryX=-0.095;entryY=0.512;entryDx=0;entryDy=0;entryPerimeter=0;strokeWidth=3;" edge="1" parent="1" target="EFqGxAVJnfdpWvWCHFHZ-16">
          <mxGeometry width="50" height="50" relative="1" as="geometry">
            <mxPoint x="390" y="449.5500000000002" as="sourcePoint" />
            <mxPoint x="630.8100000000002" y="450.3599999999997" as="targetPoint" />
          </mxGeometry>
        </mxCell>
        <mxCell id="EFqGxAVJnfdpWvWCHFHZ-24" value="" style="endArrow=classic;html=1;rounded=0;entryX=-0.069;entryY=0.635;entryDx=0;entryDy=0;entryPerimeter=0;strokeWidth=3;" edge="1" parent="1" target="EFqGxAVJnfdpWvWCHFHZ-16">
          <mxGeometry width="50" height="50" relative="1" as="geometry">
            <mxPoint x="390" y="609.5500000000002" as="sourcePoint" />
            <mxPoint x="630.8100000000002" y="610.3599999999997" as="targetPoint" />
          </mxGeometry>
        </mxCell>
        <mxCell id="EFqGxAVJnfdpWvWCHFHZ-25" value="" style="endArrow=classic;html=1;rounded=0;entryX=-0.086;entryY=0.574;entryDx=0;entryDy=0;entryPerimeter=0;strokeWidth=3;" edge="1" parent="1" target="EFqGxAVJnfdpWvWCHFHZ-16">
          <mxGeometry width="50" height="50" relative="1" as="geometry">
            <mxPoint x="389.19" y="529.5500000000002" as="sourcePoint" />
            <mxPoint x="630.0000000000002" y="530.3599999999997" as="targetPoint" />
          </mxGeometry>
        </mxCell>
        <mxCell id="EFqGxAVJnfdpWvWCHFHZ-26" value="" style="endArrow=classic;html=1;rounded=0;entryX=-0.05;entryY=0.388;entryDx=0;entryDy=0;entryPerimeter=0;strokeWidth=3;" edge="1" parent="1" target="EFqGxAVJnfdpWvWCHFHZ-16">
          <mxGeometry width="50" height="50" relative="1" as="geometry">
            <mxPoint x="389.19" y="289.5500000000002" as="sourcePoint" />
            <mxPoint x="630.0000000000002" y="290.3599999999997" as="targetPoint" />
          </mxGeometry>
        </mxCell>
        <mxCell id="EFqGxAVJnfdpWvWCHFHZ-27" value="" style="endArrow=classic;html=1;rounded=0;entryX=-0.154;entryY=0.449;entryDx=0;entryDy=0;entryPerimeter=0;strokeWidth=3;" edge="1" parent="1" target="EFqGxAVJnfdpWvWCHFHZ-16">
          <mxGeometry width="50" height="50" relative="1" as="geometry">
            <mxPoint x="390" y="369.5500000000002" as="sourcePoint" />
            <mxPoint x="630.8100000000002" y="370.3599999999997" as="targetPoint" />
          </mxGeometry>
        </mxCell>
        <mxCell id="EFqGxAVJnfdpWvWCHFHZ-28" value="" style="endArrow=classic;html=1;rounded=0;entryX=-0.075;entryY=0.139;entryDx=0;entryDy=0;entryPerimeter=0;strokeWidth=3;" edge="1" parent="1" target="EFqGxAVJnfdpWvWCHFHZ-16">
          <mxGeometry width="50" height="50" relative="1" as="geometry">
            <mxPoint x="390.00000000000006" y="-30.449999999999818" as="sourcePoint" />
            <mxPoint x="630.8100000000004" y="-29.640000000000327" as="targetPoint" />
          </mxGeometry>
        </mxCell>
        <mxCell id="EFqGxAVJnfdpWvWCHFHZ-29" value="" style="endArrow=classic;html=1;rounded=0;entryX=-0.005;entryY=0.132;entryDx=0;entryDy=0;entryPerimeter=0;strokeWidth=3;" edge="1" parent="1" target="EFqGxAVJnfdpWvWCHFHZ-85">
          <mxGeometry width="50" height="50" relative="1" as="geometry">
            <mxPoint x="390.00000000000006" y="49.55000000000018" as="sourcePoint" />
            <mxPoint x="630.8100000000004" y="50.35999999999967" as="targetPoint" />
          </mxGeometry>
        </mxCell>
        <mxCell id="EFqGxAVJnfdpWvWCHFHZ-30" value="" style="endArrow=classic;html=1;rounded=0;entryX=-0.044;entryY=0.264;entryDx=0;entryDy=0;entryPerimeter=0;strokeWidth=3;" edge="1" parent="1" target="EFqGxAVJnfdpWvWCHFHZ-16">
          <mxGeometry width="50" height="50" relative="1" as="geometry">
            <mxPoint x="389.19000000000005" y="129.55000000000018" as="sourcePoint" />
            <mxPoint x="630.0000000000005" y="130.35999999999967" as="targetPoint" />
          </mxGeometry>
        </mxCell>
        <mxCell id="EFqGxAVJnfdpWvWCHFHZ-31" value="" style="endArrow=classic;html=1;rounded=0;entryX=-0.062;entryY=0.325;entryDx=0;entryDy=0;entryPerimeter=0;strokeWidth=3;" edge="1" parent="1" target="EFqGxAVJnfdpWvWCHFHZ-16">
          <mxGeometry width="50" height="50" relative="1" as="geometry">
            <mxPoint x="389.19000000000005" y="209.55000000000018" as="sourcePoint" />
            <mxPoint x="630.0000000000005" y="210.35999999999967" as="targetPoint" />
          </mxGeometry>
        </mxCell>
        <mxCell id="EFqGxAVJnfdpWvWCHFHZ-32" value="" style="endArrow=classic;html=1;rounded=0;entryX=-0.1;entryY=0.077;entryDx=0;entryDy=0;entryPerimeter=0;strokeWidth=3;" edge="1" parent="1" target="EFqGxAVJnfdpWvWCHFHZ-16">
          <mxGeometry width="50" height="50" relative="1" as="geometry">
            <mxPoint x="389.19" y="-110.44999999999982" as="sourcePoint" />
            <mxPoint x="630.0000000000005" y="-109.64000000000033" as="targetPoint" />
          </mxGeometry>
        </mxCell>
        <mxCell id="EFqGxAVJnfdpWvWCHFHZ-33" value="" style="endArrow=classic;html=1;rounded=0;strokeWidth=3;" edge="1" parent="1">
          <mxGeometry width="50" height="50" relative="1" as="geometry">
            <mxPoint x="450" y="770" as="sourcePoint" />
            <mxPoint x="450" y="890" as="targetPoint" />
          </mxGeometry>
        </mxCell>
        <mxCell id="EFqGxAVJnfdpWvWCHFHZ-34" value="" style="endArrow=classic;html=1;rounded=0;strokeWidth=3;entryX=0;entryY=0.899;entryDx=0;entryDy=0;entryPerimeter=0;" edge="1" parent="1" target="EFqGxAVJnfdpWvWCHFHZ-16">
          <mxGeometry width="50" height="50" relative="1" as="geometry">
            <mxPoint x="389.19" y="949.1900000000002" as="sourcePoint" />
            <mxPoint x="680" y="940" as="targetPoint" />
          </mxGeometry>
        </mxCell>
        <mxCell id="EFqGxAVJnfdpWvWCHFHZ-35" value="" style="endArrow=classic;html=1;rounded=0;strokeWidth=3;" edge="1" parent="1">
          <mxGeometry width="50" height="50" relative="1" as="geometry">
            <mxPoint x="420" y="850" as="sourcePoint" />
            <mxPoint x="420" y="890" as="targetPoint" />
          </mxGeometry>
        </mxCell>
        <mxCell id="EFqGxAVJnfdpWvWCHFHZ-36" value="" style="endArrow=classic;html=1;rounded=0;strokeWidth=3;" edge="1" parent="1">
          <mxGeometry width="50" height="50" relative="1" as="geometry">
            <mxPoint x="480" y="690" as="sourcePoint" />
            <mxPoint x="480" y="890" as="targetPoint" />
          </mxGeometry>
        </mxCell>
        <mxCell id="EFqGxAVJnfdpWvWCHFHZ-37" value="" style="endArrow=classic;html=1;rounded=0;strokeWidth=3;" edge="1" parent="1">
          <mxGeometry width="50" height="50" relative="1" as="geometry">
            <mxPoint x="510" y="610" as="sourcePoint" />
            <mxPoint x="510" y="890" as="targetPoint" />
          </mxGeometry>
        </mxCell>
        <mxCell id="EFqGxAVJnfdpWvWCHFHZ-38" value="" style="endArrow=classic;html=1;rounded=0;strokeWidth=3;" edge="1" parent="1">
          <mxGeometry width="50" height="50" relative="1" as="geometry">
            <mxPoint x="540" y="530" as="sourcePoint" />
            <mxPoint x="540" y="890" as="targetPoint" />
          </mxGeometry>
        </mxCell>
        <mxCell id="EFqGxAVJnfdpWvWCHFHZ-39" value="" style="endArrow=classic;html=1;rounded=0;strokeWidth=3;" edge="1" parent="1">
          <mxGeometry width="50" height="50" relative="1" as="geometry">
            <mxPoint x="570" y="450" as="sourcePoint" />
            <mxPoint x="570" y="890" as="targetPoint" />
          </mxGeometry>
        </mxCell>
        <mxCell id="EFqGxAVJnfdpWvWCHFHZ-40" value="" style="rounded=1;whiteSpace=wrap;html=1;" vertex="1" parent="1">
          <mxGeometry x="170" y="740" width="220" height="60" as="geometry" />
        </mxCell>
        <mxCell id="EFqGxAVJnfdpWvWCHFHZ-41" value="" style="rounded=1;whiteSpace=wrap;html=1;" vertex="1" parent="1">
          <mxGeometry x="170" y="660" width="220" height="60" as="geometry" />
        </mxCell>
        <mxCell id="EFqGxAVJnfdpWvWCHFHZ-42" value="" style="rounded=1;whiteSpace=wrap;html=1;" vertex="1" parent="1">
          <mxGeometry x="170" y="580" width="220" height="60" as="geometry" />
        </mxCell>
        <mxCell id="EFqGxAVJnfdpWvWCHFHZ-43" value="" style="rounded=1;whiteSpace=wrap;html=1;" vertex="1" parent="1">
          <mxGeometry x="170" y="500" width="220" height="60" as="geometry" />
        </mxCell>
        <mxCell id="EFqGxAVJnfdpWvWCHFHZ-44" value="&lt;font style=&quot;font-size: 21px;&quot;&gt;&lt;b&gt;AC&lt;/b&gt;&lt;/font&gt;" style="rounded=1;whiteSpace=wrap;html=1;strokeWidth=3;" vertex="1" parent="1">
          <mxGeometry x="170" y="920" width="220" height="60" as="geometry" />
        </mxCell>
        <mxCell id="EFqGxAVJnfdpWvWCHFHZ-45" value="" style="rounded=1;whiteSpace=wrap;html=1;" vertex="1" parent="1">
          <mxGeometry x="170" y="420" width="220" height="60" as="geometry" />
        </mxCell>
        <mxCell id="EFqGxAVJnfdpWvWCHFHZ-46" value="&lt;font style=&quot;font-size: 21px;&quot;&gt;&lt;b&gt;K&lt;/b&gt;&lt;/font&gt;" style="rounded=1;whiteSpace=wrap;html=1;strokeWidth=3;" vertex="1" parent="1">
          <mxGeometry x="170" y="740" width="220" height="60" as="geometry" />
        </mxCell>
        <mxCell id="EFqGxAVJnfdpWvWCHFHZ-47" value="&lt;font style=&quot;font-size: 21px;&quot;&gt;&lt;b&gt;W&lt;/b&gt;&lt;/font&gt;" style="rounded=1;whiteSpace=wrap;html=1;strokeWidth=3;" vertex="1" parent="1">
          <mxGeometry x="170" y="660" width="220" height="60" as="geometry" />
        </mxCell>
        <mxCell id="EFqGxAVJnfdpWvWCHFHZ-48" value="&lt;b&gt;&lt;font style=&quot;font-size: 21px;&quot;&gt;L&lt;/font&gt;&lt;/b&gt;" style="rounded=1;whiteSpace=wrap;html=1;strokeWidth=3;" vertex="1" parent="1">
          <mxGeometry x="170" y="580" width="220" height="60" as="geometry" />
        </mxCell>
        <mxCell id="EFqGxAVJnfdpWvWCHFHZ-49" value="&lt;b&gt;&lt;font style=&quot;font-size: 21px;&quot;&gt;X&lt;/font&gt;&lt;/b&gt;" style="rounded=1;whiteSpace=wrap;html=1;strokeWidth=3;" vertex="1" parent="1">
          <mxGeometry x="170" y="500" width="220" height="60" as="geometry" />
        </mxCell>
        <mxCell id="EFqGxAVJnfdpWvWCHFHZ-51" value="&lt;b&gt;&lt;font style=&quot;font-size: 21px;&quot;&gt;COUNT&lt;/font&gt;&lt;/b&gt;" style="rounded=1;whiteSpace=wrap;html=1;strokeWidth=3;" vertex="1" parent="1">
          <mxGeometry x="170" y="420" width="220" height="60" as="geometry" />
        </mxCell>
        <mxCell id="EFqGxAVJnfdpWvWCHFHZ-52" value="&lt;b&gt;&lt;font style=&quot;font-size: 21px;&quot;&gt;CENTERP&lt;/font&gt;&lt;/b&gt;" style="rounded=1;whiteSpace=wrap;html=1;strokeWidth=3;" vertex="1" parent="1">
          <mxGeometry x="170" y="260" width="220" height="60" as="geometry" />
        </mxCell>
        <mxCell id="EFqGxAVJnfdpWvWCHFHZ-53" value="" style="shape=trapezoid;perimeter=trapezoidPerimeter;whiteSpace=wrap;html=1;fixedSize=1;rotation=-180;strokeWidth=3;" vertex="1" parent="1">
          <mxGeometry x="260" y="1040" width="300" height="40" as="geometry" />
        </mxCell>
        <mxCell id="EFqGxAVJnfdpWvWCHFHZ-54" value="" style="endArrow=classic;html=1;rounded=0;strokeWidth=3;" edge="1" parent="1">
          <mxGeometry width="50" height="50" relative="1" as="geometry">
            <mxPoint x="320" y="980" as="sourcePoint" />
            <mxPoint x="320.0000000000002" y="1040" as="targetPoint" />
          </mxGeometry>
        </mxCell>
        <mxCell id="EFqGxAVJnfdpWvWCHFHZ-55" value="" style="endArrow=classic;html=1;rounded=0;strokeWidth=3;" edge="1" parent="1">
          <mxGeometry width="50" height="50" relative="1" as="geometry">
            <mxPoint x="494.86" y="930" as="sourcePoint" />
            <mxPoint x="494.86000000000024" y="1040" as="targetPoint" />
          </mxGeometry>
        </mxCell>
        <mxCell id="EFqGxAVJnfdpWvWCHFHZ-58" value="" style="endArrow=classic;html=1;rounded=0;entryX=0;entryY=0.5;entryDx=0;entryDy=0;strokeWidth=3;" edge="1" parent="1" target="EFqGxAVJnfdpWvWCHFHZ-14">
          <mxGeometry width="50" height="50" relative="1" as="geometry">
            <mxPoint x="100.00000000000006" y="-110.47999999999982" as="sourcePoint" />
            <mxPoint x="340.8100000000007" y="-109.67000000000033" as="targetPoint" />
          </mxGeometry>
        </mxCell>
        <mxCell id="EFqGxAVJnfdpWvWCHFHZ-59" value="" style="endArrow=classic;html=1;rounded=0;entryX=0;entryY=0.5;entryDx=0;entryDy=0;strokeWidth=3;" edge="1" parent="1">
          <mxGeometry width="50" height="50" relative="1" as="geometry">
            <mxPoint x="100" y="209.55000000000018" as="sourcePoint" />
            <mxPoint x="170" y="210.02999999999997" as="targetPoint" />
          </mxGeometry>
        </mxCell>
        <mxCell id="EFqGxAVJnfdpWvWCHFHZ-60" value="" style="endArrow=classic;html=1;rounded=0;entryX=0;entryY=0.5;entryDx=0;entryDy=0;strokeWidth=3;" edge="1" parent="1">
          <mxGeometry width="50" height="50" relative="1" as="geometry">
            <mxPoint x="100" y="49.55000000000021" as="sourcePoint" />
            <mxPoint x="170" y="50.03" as="targetPoint" />
          </mxGeometry>
        </mxCell>
        <mxCell id="EFqGxAVJnfdpWvWCHFHZ-61" value="" style="endArrow=classic;html=1;rounded=0;entryX=0;entryY=0.5;entryDx=0;entryDy=0;strokeWidth=3;" edge="1" parent="1">
          <mxGeometry width="50" height="50" relative="1" as="geometry">
            <mxPoint x="100" y="-30.44999999999979" as="sourcePoint" />
            <mxPoint x="170" y="-29.97" as="targetPoint" />
          </mxGeometry>
        </mxCell>
        <mxCell id="EFqGxAVJnfdpWvWCHFHZ-62" value="" style="endArrow=classic;html=1;rounded=0;entryX=0;entryY=0.5;entryDx=0;entryDy=0;strokeWidth=3;" edge="1" parent="1">
          <mxGeometry width="50" height="50" relative="1" as="geometry">
            <mxPoint x="100" y="609.0900000000003" as="sourcePoint" />
            <mxPoint x="170" y="609.57" as="targetPoint" />
          </mxGeometry>
        </mxCell>
        <mxCell id="EFqGxAVJnfdpWvWCHFHZ-63" value="" style="endArrow=classic;html=1;rounded=0;entryX=0;entryY=0.5;entryDx=0;entryDy=0;strokeWidth=3;" edge="1" parent="1">
          <mxGeometry width="50" height="50" relative="1" as="geometry">
            <mxPoint x="100" y="949.4400000000003" as="sourcePoint" />
            <mxPoint x="170" y="949.9200000000001" as="targetPoint" />
          </mxGeometry>
        </mxCell>
        <mxCell id="EFqGxAVJnfdpWvWCHFHZ-64" value="" style="endArrow=classic;html=1;rounded=0;entryX=0;entryY=0.5;entryDx=0;entryDy=0;strokeWidth=3;startArrow=none;" edge="1" parent="1" source="EFqGxAVJnfdpWvWCHFHZ-15">
          <mxGeometry width="50" height="50" relative="1" as="geometry">
            <mxPoint x="160" y="-50.47999999999979" as="sourcePoint" />
            <mxPoint x="230" y="-50" as="targetPoint" />
          </mxGeometry>
        </mxCell>
        <mxCell id="EFqGxAVJnfdpWvWCHFHZ-65" value="" style="endArrow=classic;html=1;rounded=0;entryX=0;entryY=0.5;entryDx=0;entryDy=0;strokeWidth=3;" edge="1" parent="1">
          <mxGeometry width="50" height="50" relative="1" as="geometry">
            <mxPoint x="100" y="529.5500000000002" as="sourcePoint" />
            <mxPoint x="170" y="530.03" as="targetPoint" />
          </mxGeometry>
        </mxCell>
        <mxCell id="EFqGxAVJnfdpWvWCHFHZ-66" value="" style="endArrow=classic;html=1;rounded=0;entryX=0;entryY=0.5;entryDx=0;entryDy=0;strokeWidth=3;" edge="1" parent="1">
          <mxGeometry width="50" height="50" relative="1" as="geometry">
            <mxPoint x="100" y="449.5500000000002" as="sourcePoint" />
            <mxPoint x="170" y="450.03" as="targetPoint" />
          </mxGeometry>
        </mxCell>
        <mxCell id="EFqGxAVJnfdpWvWCHFHZ-67" value="" style="endArrow=classic;html=1;rounded=0;entryX=0;entryY=0.5;entryDx=0;entryDy=0;strokeWidth=3;" edge="1" parent="1">
          <mxGeometry width="50" height="50" relative="1" as="geometry">
            <mxPoint x="100" y="369.5500000000002" as="sourcePoint" />
            <mxPoint x="170" y="370.03" as="targetPoint" />
          </mxGeometry>
        </mxCell>
        <mxCell id="EFqGxAVJnfdpWvWCHFHZ-68" value="" style="endArrow=classic;html=1;rounded=0;entryX=0;entryY=0.5;entryDx=0;entryDy=0;strokeWidth=3;" edge="1" parent="1">
          <mxGeometry width="50" height="50" relative="1" as="geometry">
            <mxPoint x="100" y="289.5500000000002" as="sourcePoint" />
            <mxPoint x="170" y="290.03" as="targetPoint" />
          </mxGeometry>
        </mxCell>
        <mxCell id="EFqGxAVJnfdpWvWCHFHZ-69" value="" style="endArrow=classic;html=1;rounded=0;entryX=0;entryY=0.5;entryDx=0;entryDy=0;strokeWidth=3;" edge="1" parent="1">
          <mxGeometry width="50" height="50" relative="1" as="geometry">
            <mxPoint x="100" y="849.0900000000003" as="sourcePoint" />
            <mxPoint x="170" y="849.57" as="targetPoint" />
          </mxGeometry>
        </mxCell>
        <mxCell id="EFqGxAVJnfdpWvWCHFHZ-70" value="" style="endArrow=classic;html=1;rounded=0;entryX=0;entryY=0.5;entryDx=0;entryDy=0;strokeWidth=3;" edge="1" parent="1">
          <mxGeometry width="50" height="50" relative="1" as="geometry">
            <mxPoint x="100" y="769.0900000000003" as="sourcePoint" />
            <mxPoint x="170" y="769.57" as="targetPoint" />
          </mxGeometry>
        </mxCell>
        <mxCell id="EFqGxAVJnfdpWvWCHFHZ-71" value="" style="endArrow=classic;html=1;rounded=0;entryX=0;entryY=0.5;entryDx=0;entryDy=0;strokeWidth=3;" edge="1" parent="1">
          <mxGeometry width="50" height="50" relative="1" as="geometry">
            <mxPoint x="100" y="689.0900000000003" as="sourcePoint" />
            <mxPoint x="170" y="689.57" as="targetPoint" />
          </mxGeometry>
        </mxCell>
        <mxCell id="EFqGxAVJnfdpWvWCHFHZ-15" value="&lt;font style=&quot;font-size: 21px;&quot;&gt;&lt;b&gt;MDR&lt;/b&gt;&lt;/font&gt;" style="rounded=1;whiteSpace=wrap;html=1;strokeWidth=3;" vertex="1" parent="1">
          <mxGeometry x="170" y="-60" width="220" height="60" as="geometry" />
        </mxCell>
        <mxCell id="EFqGxAVJnfdpWvWCHFHZ-73" value="" style="shape=trapezoid;perimeter=trapezoidPerimeter;whiteSpace=wrap;html=1;fixedSize=1;rotation=-90;strokeWidth=3;" vertex="1" parent="1">
          <mxGeometry x="170" y="1120" width="90" height="40" as="geometry" />
        </mxCell>
        <mxCell id="EFqGxAVJnfdpWvWCHFHZ-78" value="" style="edgeStyle=segmentEdgeStyle;endArrow=classic;html=1;rounded=0;startSize=0;endSize=6;strokeWidth=3;exitX=0.374;exitY=1.001;exitDx=0;exitDy=0;exitPerimeter=0;" edge="1" parent="1" source="EFqGxAVJnfdpWvWCHFHZ-16">
          <mxGeometry width="50" height="50" relative="1" as="geometry">
            <mxPoint x="640" y="1120" as="sourcePoint" />
            <mxPoint x="235" y="1160" as="targetPoint" />
            <Array as="points">
              <mxPoint x="700" y="1081" />
              <mxPoint x="700" y="1160" />
            </Array>
          </mxGeometry>
        </mxCell>
        <mxCell id="EFqGxAVJnfdpWvWCHFHZ-79" value="" style="edgeStyle=segmentEdgeStyle;endArrow=classic;html=1;rounded=0;startSize=0;endSize=6;strokeWidth=3;exitX=0.39;exitY=-0.037;exitDx=0;exitDy=0;exitPerimeter=0;entryX=0.727;entryY=1.031;entryDx=0;entryDy=0;entryPerimeter=0;" edge="1" parent="1" source="EFqGxAVJnfdpWvWCHFHZ-53" target="EFqGxAVJnfdpWvWCHFHZ-73">
          <mxGeometry width="50" height="50" relative="1" as="geometry">
            <mxPoint x="443" y="1090" as="sourcePoint" />
            <mxPoint x="240" y="1119.98" as="targetPoint" />
            <Array as="points">
              <mxPoint x="443" y="1120" />
            </Array>
          </mxGeometry>
        </mxCell>
        <mxCell id="EFqGxAVJnfdpWvWCHFHZ-81" value="" style="edgeStyle=segmentEdgeStyle;endArrow=classic;html=1;rounded=0;startSize=0;endSize=6;strokeWidth=3;exitX=0.554;exitY=0.003;exitDx=0;exitDy=0;exitPerimeter=0;entryX=0.325;entryY=1.001;entryDx=0;entryDy=0;entryPerimeter=0;" edge="1" parent="1" source="EFqGxAVJnfdpWvWCHFHZ-73" target="EFqGxAVJnfdpWvWCHFHZ-17">
          <mxGeometry width="50" height="50" relative="1" as="geometry">
            <mxPoint x="120" y="1135" as="sourcePoint" />
            <mxPoint x="80" y="1095" as="targetPoint" />
            <Array as="points">
              <mxPoint x="195" y="1140" />
              <mxPoint x="80" y="1140" />
            </Array>
          </mxGeometry>
        </mxCell>
        <mxCell id="EFqGxAVJnfdpWvWCHFHZ-82" value="&lt;font size=&quot;1&quot; style=&quot;&quot;&gt;&lt;b style=&quot;font-size: 17px;&quot;&gt;ALU&lt;/b&gt;&lt;/font&gt;" style="text;html=1;resizable=0;autosize=1;align=center;verticalAlign=middle;points=[];fillColor=none;strokeColor=none;rounded=0;strokeWidth=18;" vertex="1" parent="1">
          <mxGeometry x="380" y="1045" width="60" height="30" as="geometry" />
        </mxCell>
        <mxCell id="EFqGxAVJnfdpWvWCHFHZ-83" value="&lt;span style=&quot;font-size: 17px;&quot;&gt;&lt;b&gt;ALU MUX&lt;/b&gt;&lt;/span&gt;" style="text;html=1;resizable=0;autosize=1;align=center;verticalAlign=middle;points=[];fillColor=none;strokeColor=none;rounded=0;strokeWidth=18;" vertex="1" parent="1">
          <mxGeometry x="445" y="895" width="100" height="30" as="geometry" />
        </mxCell>
        <mxCell id="EFqGxAVJnfdpWvWCHFHZ-84" value="&lt;b&gt;DRAM&lt;/b&gt;" style="rounded=0;whiteSpace=wrap;html=1;fontSize=21;strokeWidth=3;fillColor=none;" vertex="1" parent="1">
          <mxGeometry x="840" y="-190" width="260" height="150" as="geometry" />
        </mxCell>
        <mxCell id="EFqGxAVJnfdpWvWCHFHZ-85" value="&lt;b&gt;IRAM&lt;/b&gt;" style="rounded=0;whiteSpace=wrap;html=1;fontSize=21;strokeWidth=3;fillColor=none;" vertex="1" parent="1">
          <mxGeometry x="840" y="30" width="260" height="150" as="geometry" />
        </mxCell>
        <mxCell id="EFqGxAVJnfdpWvWCHFHZ-87" value="" style="edgeStyle=elbowEdgeStyle;elbow=vertical;endArrow=classic;html=1;rounded=0;fontSize=21;startSize=0;endSize=6;strokeWidth=3;entryX=0.609;entryY=1;entryDx=0;entryDy=0;entryPerimeter=0;exitX=0.5;exitY=1;exitDx=0;exitDy=0;" edge="1" parent="1" source="EFqGxAVJnfdpWvWCHFHZ-15" target="EFqGxAVJnfdpWvWCHFHZ-84">
          <mxGeometry width="50" height="50" relative="1" as="geometry">
            <mxPoint x="460" y="10" as="sourcePoint" />
            <mxPoint x="1000" y="-10" as="targetPoint" />
            <Array as="points">
              <mxPoint x="960" y="10" />
            </Array>
          </mxGeometry>
        </mxCell>
        <mxCell id="EFqGxAVJnfdpWvWCHFHZ-88" value="" style="edgeStyle=elbowEdgeStyle;elbow=vertical;endArrow=classic;html=1;rounded=0;fontSize=21;startSize=9;endSize=0;strokeWidth=2;" edge="1" parent="1">
          <mxGeometry width="50" height="50" relative="1" as="geometry">
            <mxPoint x="840" y="170" as="sourcePoint" />
            <mxPoint x="280" y="160" as="targetPoint" />
            <Array as="points">
              <mxPoint x="430" y="170" />
            </Array>
          </mxGeometry>
        </mxCell>
        <mxCell id="EFqGxAVJnfdpWvWCHFHZ-89" value="" style="edgeStyle=elbowEdgeStyle;elbow=vertical;endArrow=classic;html=1;rounded=0;fontSize=21;startSize=9;endSize=5;strokeWidth=3;exitX=0.507;exitY=-0.026;exitDx=0;exitDy=0;exitPerimeter=0;entryX=0.615;entryY=0;entryDx=0;entryDy=0;entryPerimeter=0;" edge="1" parent="1" source="EFqGxAVJnfdpWvWCHFHZ-14" target="EFqGxAVJnfdpWvWCHFHZ-84">
          <mxGeometry width="50" height="50" relative="1" as="geometry">
            <mxPoint x="290" y="-260" as="sourcePoint" />
            <mxPoint x="810" y="-190" as="targetPoint" />
            <Array as="points">
              <mxPoint x="920" y="-240" />
              <mxPoint x="900" y="-260" />
              <mxPoint x="530" y="-260" />
            </Array>
          </mxGeometry>
        </mxCell>
        <mxCell id="EFqGxAVJnfdpWvWCHFHZ-91" value="" style="endArrow=classic;html=1;rounded=0;fontSize=21;startSize=9;endSize=5;strokeWidth=3;" edge="1" parent="1">
          <mxGeometry width="50" height="50" relative="1" as="geometry">
            <mxPoint x="840" y="-60" as="sourcePoint" />
            <mxPoint x="660" y="-60" as="targetPoint" />
          </mxGeometry>
        </mxCell>
        <mxCell id="EFqGxAVJnfdpWvWCHFHZ-92" value="&lt;font size=&quot;1&quot; style=&quot;&quot;&gt;&lt;b style=&quot;font-size: 17px;&quot;&gt;C BUS MUX&lt;/b&gt;&lt;/font&gt;" style="text;html=1;resizable=0;autosize=1;align=center;verticalAlign=middle;points=[];fillColor=none;strokeColor=none;rounded=0;strokeWidth=18;" vertex="1" parent="1">
          <mxGeometry x="155" y="1190" width="120" height="30" as="geometry" />
        </mxCell>
        <mxCell id="EFqGxAVJnfdpWvWCHFHZ-93" value="" style="triangle;whiteSpace=wrap;html=1;fontSize=21;strokeWidth=3;" vertex="1" parent="1">
          <mxGeometry x="620" y="110" width="30" height="40" as="geometry" />
        </mxCell>
        <mxCell id="EFqGxAVJnfdpWvWCHFHZ-94" value="" style="endArrow=classic;html=1;rounded=0;fontSize=21;startSize=1;endSize=0;strokeWidth=3;entryX=0.661;entryY=0.675;entryDx=0;entryDy=0;entryPerimeter=0;" edge="1" parent="1" target="EFqGxAVJnfdpWvWCHFHZ-93">
          <mxGeometry width="50" height="50" relative="1" as="geometry">
            <mxPoint x="640" y="160" as="sourcePoint" />
            <mxPoint x="640" y="140" as="targetPoint" />
          </mxGeometry>
        </mxCell>
        <mxCell id="EFqGxAVJnfdpWvWCHFHZ-98" value="" style="triangle;whiteSpace=wrap;html=1;fontSize=21;strokeWidth=3;" vertex="1" parent="1">
          <mxGeometry x="620" y="-50" width="30" height="40" as="geometry" />
        </mxCell>
        <mxCell id="EFqGxAVJnfdpWvWCHFHZ-99" value="" style="endArrow=classic;html=1;rounded=0;fontSize=21;startSize=1;endSize=0;strokeWidth=3;entryX=0.661;entryY=0.675;entryDx=0;entryDy=0;entryPerimeter=0;" edge="1" parent="1" target="EFqGxAVJnfdpWvWCHFHZ-98">
          <mxGeometry width="50" height="50" relative="1" as="geometry">
            <mxPoint x="640" as="sourcePoint" />
            <mxPoint x="640" y="-20" as="targetPoint" />
          </mxGeometry>
        </mxCell>
        <mxCell id="EFqGxAVJnfdpWvWCHFHZ-100" value="" style="triangle;whiteSpace=wrap;html=1;fontSize=21;strokeWidth=3;" vertex="1" parent="1">
          <mxGeometry x="620" y="-130" width="30" height="40" as="geometry" />
        </mxCell>
        <mxCell id="EFqGxAVJnfdpWvWCHFHZ-101" value="" style="endArrow=classic;html=1;rounded=0;fontSize=21;startSize=1;endSize=0;strokeWidth=3;entryX=0.661;entryY=0.675;entryDx=0;entryDy=0;entryPerimeter=0;" edge="1" parent="1" target="EFqGxAVJnfdpWvWCHFHZ-100">
          <mxGeometry width="50" height="50" relative="1" as="geometry">
            <mxPoint x="640" y="-80" as="sourcePoint" />
            <mxPoint x="640" y="-100" as="targetPoint" />
          </mxGeometry>
        </mxCell>
        <mxCell id="EFqGxAVJnfdpWvWCHFHZ-102" value="" style="triangle;whiteSpace=wrap;html=1;fontSize=21;strokeWidth=3;" vertex="1" parent="1">
          <mxGeometry x="620" y="190" width="30" height="40" as="geometry" />
        </mxCell>
        <mxCell id="EFqGxAVJnfdpWvWCHFHZ-103" value="" style="endArrow=classic;html=1;rounded=0;fontSize=21;startSize=1;endSize=0;strokeWidth=3;entryX=0.661;entryY=0.675;entryDx=0;entryDy=0;entryPerimeter=0;" edge="1" parent="1" target="EFqGxAVJnfdpWvWCHFHZ-102">
          <mxGeometry width="50" height="50" relative="1" as="geometry">
            <mxPoint x="640" y="240" as="sourcePoint" />
            <mxPoint x="640" y="220" as="targetPoint" />
          </mxGeometry>
        </mxCell>
        <mxCell id="EFqGxAVJnfdpWvWCHFHZ-104" value="" style="triangle;whiteSpace=wrap;html=1;fontSize=21;strokeWidth=3;" vertex="1" parent="1">
          <mxGeometry x="620" y="270" width="30" height="40" as="geometry" />
        </mxCell>
        <mxCell id="EFqGxAVJnfdpWvWCHFHZ-105" value="" style="endArrow=classic;html=1;rounded=0;fontSize=21;startSize=1;endSize=0;strokeWidth=3;entryX=0.661;entryY=0.675;entryDx=0;entryDy=0;entryPerimeter=0;" edge="1" parent="1" target="EFqGxAVJnfdpWvWCHFHZ-104">
          <mxGeometry width="50" height="50" relative="1" as="geometry">
            <mxPoint x="640" y="320" as="sourcePoint" />
            <mxPoint x="640" y="300" as="targetPoint" />
          </mxGeometry>
        </mxCell>
        <mxCell id="EFqGxAVJnfdpWvWCHFHZ-106" value="" style="triangle;whiteSpace=wrap;html=1;fontSize=21;strokeWidth=3;" vertex="1" parent="1">
          <mxGeometry x="620" y="350" width="30" height="40" as="geometry" />
        </mxCell>
        <mxCell id="EFqGxAVJnfdpWvWCHFHZ-107" value="" style="endArrow=classic;html=1;rounded=0;fontSize=21;startSize=1;endSize=0;strokeWidth=3;entryX=0.661;entryY=0.675;entryDx=0;entryDy=0;entryPerimeter=0;" edge="1" parent="1" target="EFqGxAVJnfdpWvWCHFHZ-106">
          <mxGeometry width="50" height="50" relative="1" as="geometry">
            <mxPoint x="640" y="399.99999999999955" as="sourcePoint" />
            <mxPoint x="640" y="380" as="targetPoint" />
          </mxGeometry>
        </mxCell>
        <mxCell id="EFqGxAVJnfdpWvWCHFHZ-108" value="" style="triangle;whiteSpace=wrap;html=1;fontSize=21;strokeWidth=3;" vertex="1" parent="1">
          <mxGeometry x="620" y="430" width="30" height="40" as="geometry" />
        </mxCell>
        <mxCell id="EFqGxAVJnfdpWvWCHFHZ-109" value="" style="endArrow=classic;html=1;rounded=0;fontSize=21;startSize=1;endSize=0;strokeWidth=3;entryX=0.661;entryY=0.675;entryDx=0;entryDy=0;entryPerimeter=0;" edge="1" parent="1" target="EFqGxAVJnfdpWvWCHFHZ-108">
          <mxGeometry width="50" height="50" relative="1" as="geometry">
            <mxPoint x="640" y="479.99999999999955" as="sourcePoint" />
            <mxPoint x="640" y="460" as="targetPoint" />
          </mxGeometry>
        </mxCell>
        <mxCell id="EFqGxAVJnfdpWvWCHFHZ-110" value="" style="triangle;whiteSpace=wrap;html=1;fontSize=21;strokeWidth=3;" vertex="1" parent="1">
          <mxGeometry x="620" y="510" width="30" height="40" as="geometry" />
        </mxCell>
        <mxCell id="EFqGxAVJnfdpWvWCHFHZ-111" value="" style="endArrow=classic;html=1;rounded=0;fontSize=21;startSize=1;endSize=0;strokeWidth=3;entryX=0.661;entryY=0.675;entryDx=0;entryDy=0;entryPerimeter=0;" edge="1" parent="1" target="EFqGxAVJnfdpWvWCHFHZ-110">
          <mxGeometry width="50" height="50" relative="1" as="geometry">
            <mxPoint x="640" y="559.9999999999995" as="sourcePoint" />
            <mxPoint x="640" y="540" as="targetPoint" />
          </mxGeometry>
        </mxCell>
        <mxCell id="EFqGxAVJnfdpWvWCHFHZ-112" value="" style="triangle;whiteSpace=wrap;html=1;fontSize=21;strokeWidth=3;" vertex="1" parent="1">
          <mxGeometry x="620" y="590" width="30" height="40" as="geometry" />
        </mxCell>
        <mxCell id="EFqGxAVJnfdpWvWCHFHZ-113" value="" style="endArrow=classic;html=1;rounded=0;fontSize=21;startSize=1;endSize=0;strokeWidth=3;entryX=0.661;entryY=0.675;entryDx=0;entryDy=0;entryPerimeter=0;" edge="1" parent="1" target="EFqGxAVJnfdpWvWCHFHZ-112">
          <mxGeometry width="50" height="50" relative="1" as="geometry">
            <mxPoint x="640" y="639.9999999999995" as="sourcePoint" />
            <mxPoint x="640" y="620" as="targetPoint" />
          </mxGeometry>
        </mxCell>
        <mxCell id="EFqGxAVJnfdpWvWCHFHZ-114" value="" style="triangle;whiteSpace=wrap;html=1;fontSize=21;strokeWidth=3;" vertex="1" parent="1">
          <mxGeometry x="620" y="670" width="30" height="40" as="geometry" />
        </mxCell>
        <mxCell id="EFqGxAVJnfdpWvWCHFHZ-115" value="" style="endArrow=classic;html=1;rounded=0;fontSize=21;startSize=1;endSize=0;strokeWidth=3;entryX=0.661;entryY=0.675;entryDx=0;entryDy=0;entryPerimeter=0;" edge="1" parent="1" target="EFqGxAVJnfdpWvWCHFHZ-114">
          <mxGeometry width="50" height="50" relative="1" as="geometry">
            <mxPoint x="640" y="719.9999999999995" as="sourcePoint" />
            <mxPoint x="640" y="700" as="targetPoint" />
          </mxGeometry>
        </mxCell>
        <mxCell id="EFqGxAVJnfdpWvWCHFHZ-116" value="" style="triangle;whiteSpace=wrap;html=1;fontSize=21;strokeWidth=3;" vertex="1" parent="1">
          <mxGeometry x="620" y="750" width="30" height="40" as="geometry" />
        </mxCell>
        <mxCell id="EFqGxAVJnfdpWvWCHFHZ-117" value="" style="endArrow=classic;html=1;rounded=0;fontSize=21;startSize=1;endSize=0;strokeWidth=3;entryX=0.661;entryY=0.675;entryDx=0;entryDy=0;entryPerimeter=0;" edge="1" parent="1" target="EFqGxAVJnfdpWvWCHFHZ-116">
          <mxGeometry width="50" height="50" relative="1" as="geometry">
            <mxPoint x="640" y="799.9999999999995" as="sourcePoint" />
            <mxPoint x="640" y="780" as="targetPoint" />
          </mxGeometry>
        </mxCell>
        <mxCell id="EFqGxAVJnfdpWvWCHFHZ-118" value="" style="triangle;whiteSpace=wrap;html=1;fontSize=21;strokeWidth=3;" vertex="1" parent="1">
          <mxGeometry x="620" y="830" width="30" height="40" as="geometry" />
        </mxCell>
        <mxCell id="EFqGxAVJnfdpWvWCHFHZ-119" value="" style="endArrow=classic;html=1;rounded=0;fontSize=21;startSize=1;endSize=0;strokeWidth=3;entryX=0.661;entryY=0.675;entryDx=0;entryDy=0;entryPerimeter=0;" edge="1" parent="1" target="EFqGxAVJnfdpWvWCHFHZ-118">
          <mxGeometry width="50" height="50" relative="1" as="geometry">
            <mxPoint x="640" y="879.9999999999995" as="sourcePoint" />
            <mxPoint x="640" y="860" as="targetPoint" />
          </mxGeometry>
        </mxCell>
        <mxCell id="EFqGxAVJnfdpWvWCHFHZ-123" value="" style="triangle;whiteSpace=wrap;html=1;fontSize=21;strokeWidth=3;" vertex="1" parent="1">
          <mxGeometry x="620" y="930" width="30" height="40" as="geometry" />
        </mxCell>
        <mxCell id="EFqGxAVJnfdpWvWCHFHZ-124" value="" style="endArrow=classic;html=1;rounded=0;fontSize=21;startSize=1;endSize=0;strokeWidth=3;entryX=0.661;entryY=0.675;entryDx=0;entryDy=0;entryPerimeter=0;" edge="1" parent="1" target="EFqGxAVJnfdpWvWCHFHZ-123">
          <mxGeometry width="50" height="50" relative="1" as="geometry">
            <mxPoint x="640" y="979.9999999999995" as="sourcePoint" />
            <mxPoint x="640" y="960" as="targetPoint" />
          </mxGeometry>
        </mxCell>
        <mxCell id="EFqGxAVJnfdpWvWCHFHZ-125" value="&lt;b&gt;CONTROL UNIT&lt;/b&gt;" style="rounded=0;whiteSpace=wrap;html=1;fontSize=21;strokeWidth=3;fillColor=none;" vertex="1" parent="1">
          <mxGeometry x="840" y="360" width="260" height="150" as="geometry" />
        </mxCell>
        <mxCell id="EFqGxAVJnfdpWvWCHFHZ-127" value="" style="edgeStyle=elbowEdgeStyle;elbow=horizontal;endArrow=classic;html=1;rounded=0;fontSize=21;startSize=1;endSize=0;strokeWidth=3;entryX=0;entryY=0.25;entryDx=0;entryDy=0;" edge="1" parent="1" target="EFqGxAVJnfdpWvWCHFHZ-125">
          <mxGeometry width="50" height="50" relative="1" as="geometry">
            <mxPoint x="780" y="170" as="sourcePoint" />
            <mxPoint x="810" y="400" as="targetPoint" />
            <Array as="points">
              <mxPoint x="780" y="280" />
            </Array>
          </mxGeometry>
        </mxCell>
        <mxCell id="EFqGxAVJnfdpWvWCHFHZ-128" value="" style="edgeStyle=elbowEdgeStyle;elbow=vertical;endArrow=classic;html=1;rounded=0;fontSize=21;startSize=1;endSize=0;strokeWidth=3;exitX=0;exitY=0.75;exitDx=0;exitDy=0;" edge="1" parent="1" source="EFqGxAVJnfdpWvWCHFHZ-53">
          <mxGeometry width="50" height="50" relative="1" as="geometry">
            <mxPoint x="840" y="1050" as="sourcePoint" />
            <mxPoint x="910" y="510" as="targetPoint" />
            <Array as="points">
              <mxPoint x="870" y="1050" />
            </Array>
          </mxGeometry>
        </mxCell>
        <mxCell id="EFqGxAVJnfdpWvWCHFHZ-129" value="&lt;font size=&quot;1&quot; style=&quot;&quot;&gt;&lt;b style=&quot;font-size: 17px;&quot;&gt;NEG&amp;nbsp;&lt;/b&gt;&lt;/font&gt;" style="text;html=1;resizable=0;autosize=1;align=center;verticalAlign=middle;points=[];fillColor=none;strokeColor=none;rounded=0;strokeWidth=18;" vertex="1" parent="1">
          <mxGeometry x="550" y="1050" width="70" height="30" as="geometry" />
        </mxCell>
        <mxCell id="EFqGxAVJnfdpWvWCHFHZ-130" value="&lt;b style=&quot;color: rgb(0, 0, 0); font-family: Helvetica; font-size: 12px; font-style: normal; font-variant-ligatures: normal; font-variant-caps: normal; letter-spacing: normal; orphans: 2; text-align: center; text-indent: 0px; text-transform: none; widows: 2; word-spacing: 0px; -webkit-text-stroke-width: 0px; background-color: rgb(248, 249, 250); text-decoration-thickness: initial; text-decoration-style: initial; text-decoration-color: initial;&quot;&gt;&lt;font style=&quot;font-size: 21px;&quot;&gt;C BUS&lt;/font&gt;&lt;/b&gt;" style="text;whiteSpace=wrap;html=1;fontSize=21;" vertex="1" parent="1">
          <mxGeometry x="45" y="-240" width="80" height="50" as="geometry" />
        </mxCell>
        <mxCell id="EFqGxAVJnfdpWvWCHFHZ-131" value="&lt;b style=&quot;color: rgb(0, 0, 0); font-family: Helvetica; font-size: 12px; font-style: normal; font-variant-ligatures: normal; font-variant-caps: normal; letter-spacing: normal; orphans: 2; text-align: center; text-indent: 0px; text-transform: none; widows: 2; word-spacing: 0px; -webkit-text-stroke-width: 0px; background-color: rgb(248, 249, 250); text-decoration-thickness: initial; text-decoration-style: initial; text-decoration-color: initial;&quot;&gt;&lt;font style=&quot;font-size: 21px;&quot;&gt;B BUS&lt;/font&gt;&lt;/b&gt;" style="text;whiteSpace=wrap;html=1;fontSize=21;" vertex="1" parent="1">
          <mxGeometry x="680" y="-240" width="80" height="50" as="geometry" />
        </mxCell>
      </root>
    </mxGraphModel>
  </diagram>
</mxfile>
